<svg version="1.1" xmlns="http://www.w3.org/2000/svg" viewBox="0 0 2128.518971691168 847.0324538453018" width="2128.518971691168" height="847.0324538453018" class="excalidraw-svg"><!-- svg-source:excalidraw --><metadata></metadata><defs><style class="style-fonts">
      </style></defs><rect x="0" y="0" width="2128.518971691168" height="847.0324538453018" fill="#ffffff"></rect><g stroke-linecap="round" transform="translate(34.53867043220089 305.3920605553907) rotate(0 45 45)"><path d="M0 0 C31.48 0.21, 60.71 -0.2, 90 0 M0 0 C32.47 -0.02, 63.67 0.5, 90 0 M90 0 C90.64 19.55, 90.22 37.01, 90 90 M90 0 C90.56 32.33, 90.73 63.61, 90 90 M90 90 C72.17 88.93, 52.09 90.15, 0 90 M90 90 C67.71 89.76, 45.89 90.15, 0 90 M0 90 C-1.02 69.09, -0.1 49.15, 0 0 M0 90 C-0.7 58.49, -0.98 26.79, 0 0" stroke="#1e1e1e" stroke-width="1" fill="none"></path></g><g stroke-linecap="round" transform="translate(153.64055077276043 304.3920605553907) rotate(0 45 45)"><path d="M0 0 C32.65 0.01, 66.05 1.49, 90 0 M0 0 C18.28 0.43, 35.73 1.4, 90 0 M90 0 C89.72 18.94, 91.13 36.71, 90 90 M90 0 C90.66 20.14, 89.26 39.78, 90 90 M90 90 C53.73 88.53, 19.28 87.9, 0 90 M90 90 C70.13 91.19, 48.46 90.7, 0 90 M0 90 C0.52 64.28, 1.43 37.92, 0 0 M0 90 C-0.26 70.87, -0.23 49.62, 0 0" stroke="#1e1e1e" stroke-width="1" fill="none"></path></g><g stroke-linecap="round" transform="translate(271.64055077276043 274.3920605553907) rotate(0 45 45)"><path d="M0 0 C31.5 1.67, 58.91 1.02, 90 0 M0 0 C18.08 0.93, 37.14 0.38, 90 0 M90 0 C90.94 34.47, 88.36 68.1, 90 90 M90 0 C89.41 30.31, 91.26 62.41, 90 90 M90 90 C70.32 88.46, 51.26 89.82, 0 90 M90 90 C58.6 91.05, 28.51 90.36, 0 90 M0 90 C1.02 64.22, -1.68 34.91, 0 0 M0 90 C0.02 58.28, 1 28.22, 0 0" stroke="#1e1e1e" stroke-width="1" fill="none"></path></g><g stroke-linecap="round" transform="translate(389.64055077276043 258.20051547173773) rotate(0 45 45)"><path d="M0 0 C26.66 0.35, 55.4 -0.99, 90 0 M0 0 C22.71 -0.49, 48.16 -0.7, 90 0 M90 0 C89 31.68, 91.4 63.18, 90 90 M90 0 C90 25.85, 88.2 50.58, 90 90 M90 90 C64.39 89.54, 42.53 90.58, 0 90 M90 90 C55.7 89.93, 21.49 90.38, 0 90 M0 90 C-2.09 57.52, 0.39 24.12, 0 0 M0 90 C0.96 56.92, -0.02 22.51, 0 0" stroke="#1e1e1e" stroke-width="1" fill="none"></path></g><g stroke-linecap="round" transform="translate(508.64055077276043 273.3920605553907) rotate(0 45 45)"><path d="M0 0 C33.47 -0.7, 69.74 -2.52, 90 0 M0 0 C33.18 -0.2, 65.31 0.5, 90 0 M90 0 C90.24 30.9, 89.03 58.14, 90 90 M90 0 C89.86 19.14, 90.47 39.18, 90 90 M90 90 C69.5 91.19, 48.96 88.73, 0 90 M90 90 C60.18 89.77, 30.85 90.22, 0 90 M0 90 C1.6 54.03, 2.12 18.32, 0 0 M0 90 C-0.9 68.6, -1.6 49.94, 0 0" stroke="#1e1e1e" stroke-width="1" fill="none"></path></g><g stroke-linecap="round" transform="translate(626.3075424701019 289.9971884456123) rotate(0 45 45)"><path d="M0 0 C31.57 -1.91, 65.8 -1.92, 90 0 M0 0 C27.89 0.69, 55.2 -0.6, 90 0 M90 0 C90.11 27.39, 88.82 60.41, 90 90 M90 0 C88.85 28.33, 88.53 56.98, 90 90 M90 90 C64.14 89.2, 35.68 90.52, 0 90 M90 90 C66.93 90.64, 43.55 89.29, 0 90 M0 90 C1 61.24, -1.84 34.56, 0 0 M0 90 C-0.72 62.05, -0.11 31.24, 0 0" stroke="#1e1e1e" stroke-width="1" fill="none"></path></g><g stroke-linecap="round" transform="translate(35.640550772760434 423.3920605553907) rotate(0 45 45)"><path d="M0 0 C27.45 -1.1, 52.59 2.4, 90 0 M0 0 C25.89 -1.23, 51.37 -0.03, 90 0 M90 0 C88.28 32.6, 90.28 59.86, 90 90 M90 0 C89.09 19.85, 89.77 41.57, 90 90 M90 90 C58.49 89.41, 24.96 89.57, 0 90 M90 90 C63.13 89.7, 34.48 90.94, 0 90 M0 90 C-2.07 65.71, -0.21 37.63, 0 0 M0 90 C0.52 70.17, 0.92 52.98, 0 0" stroke="#1e1e1e" stroke-width="1" fill="none"></path></g><g stroke-linecap="round" transform="translate(153.64055077276043 422.3920605553907) rotate(0 45 45)"><path d="M0 0 C18.14 2.41, 35.77 1.82, 90 0 M0 0 C32.14 1.13, 64.19 0.52, 90 0 M90 0 C89.7 16.39, 87.86 35.85, 90 90 M90 0 C89.49 22.76, 90.01 45.49, 90 90 M90 90 C68.2 90.16, 48.04 91.3, 0 90 M90 90 C58.22 89.73, 25.99 89.98, 0 90 M0 90 C1.07 63.43, -1.16 35.61, 0 0 M0 90 C0.37 55.21, 0.14 19.31, 0 0" stroke="#1e1e1e" stroke-width="1" fill="none"></path></g><g stroke-linecap="round" transform="translate(271.64055077276043 392.3920605553907) rotate(0 45 45)"><path d="M0 0 C17.7 0.25, 37.12 0, 90 0 M0 0 C20.72 -0.56, 39.6 -1.2, 90 0 M90 0 C88.76 34.21, 89.15 68.43, 90 90 M90 0 C90.62 21.25, 89.39 41.2, 90 90 M90 90 C63.18 91.37, 37.07 92.02, 0 90 M90 90 C70.07 91.1, 50.27 89.68, 0 90 M0 90 C-2 53.27, 1.69 19.33, 0 0 M0 90 C-0.21 72.12, 0.27 54.55, 0 0" stroke="#1e1e1e" stroke-width="1" fill="none"></path></g><g stroke-linecap="round" transform="translate(389.64055077276043 379.20051547173773) rotate(0 45 45)"><path d="M0 0 C34.87 0.26, 66.09 0.1, 90 0 M0 0 C30.13 -0.66, 63.08 0.34, 90 0 M90 0 C88.32 17.38, 87.9 37.39, 90 90 M90 0 C89.86 31.07, 90.52 61.13, 90 90 M90 90 C63.38 92.53, 32.96 90.95, 0 90 M90 90 C58.94 89.91, 28.92 90.84, 0 90 M0 90 C2.7 63.36, -1.16 37.89, 0 0 M0 90 C0.48 57.7, 0.45 22.88, 0 0" stroke="#1e1e1e" stroke-width="1" fill="none"></path></g><g stroke-linecap="round" transform="translate(508.64055077276043 392.3920605553907) rotate(0 45 45)"><path d="M0 0 C29.67 0.21, 63.23 0.55, 90 0 M0 0 C26.52 0.92, 50.36 0, 90 0 M90 0 C88.08 24.26, 90.37 49.45, 90 90 M90 0 C89.41 33.93, 89.49 68.69, 90 90 M90 90 C55.57 91.24, 25.21 90.68, 0 90 M90 90 C57.61 89.56, 23.33 88.44, 0 90 M0 90 C-2.82 70.52, 0.5 50.16, 0 0 M0 90 C0.01 59.94, 0.29 31.01, 0 0" stroke="#1e1e1e" stroke-width="1" fill="none"></path></g><g stroke-linecap="round" transform="translate(627.5386141758008 407.3920605553907) rotate(0 45 45)"><path d="M0 0 C30.95 0.62, 59.78 -2.18, 90 0 M0 0 C18.92 -0.9, 39.38 -0.7, 90 0 M90 0 C90.18 22.48, 90.97 41.35, 90 90 M90 0 C90.08 30, 90.65 60.35, 90 90 M90 90 C55.11 89.96, 19.85 90.03, 0 90 M90 90 C69.42 89.28, 48.21 91.13, 0 90 M0 90 C2.24 64.63, 1.35 40.28, 0 0 M0 90 C0.32 55.2, -0.52 21.79, 0 0" stroke="#1e1e1e" stroke-width="1" fill="none"></path></g><g stroke-linecap="round" transform="translate(34.640550772760434 541.3920605553907) rotate(0 45 45)"><path d="M0 0 C29.03 -2.33, 57.08 1.36, 90 0 M0 0 C28.54 0.12, 57.07 -0.09, 90 0 M90 0 C92 26.16, 91.02 54.96, 90 90 M90 0 C90.72 24.27, 91.05 46.63, 90 90 M90 90 C62.77 89.78, 31.3 91.72, 0 90 M90 90 C60.32 90.12, 32.04 88.2, 0 90 M0 90 C-0.14 62.06, 0.94 33.13, 0 0 M0 90 C-0.77 71.5, 0.21 52.91, 0 0" stroke="#1e1e1e" stroke-width="1" fill="none"></path></g><g stroke-linecap="round" transform="translate(153.64055077276043 540.4906780247453) rotate(0 45 45)"><path d="M0 0 C29.27 2.62, 62.13 -0.98, 90 0 M0 0 C19.95 -0.26, 41.21 0.88, 90 0 M90 0 C91.37 32.16, 90 64.48, 90 90 M90 0 C91.56 27.05, 90.76 56.14, 90 90 M90 90 C62.45 91.75, 38.21 89.78, 0 90 M90 90 C70.97 89.86, 52.51 91.52, 0 90 M0 90 C1.34 64.09, -2.15 37.89, 0 0 M0 90 C0.97 69.77, 0.77 50.55, 0 0" stroke="#1e1e1e" stroke-width="1" fill="none"></path></g><g stroke-linecap="round" transform="translate(271.64055077276043 510.3920605553907) rotate(0 45 45)"><path d="M0 0 C18.65 -2.64, 35.06 -1.42, 90 0 M0 0 C22.39 1.07, 45.25 1.47, 90 0 M90 0 C89.56 21.24, 90.48 43.45, 90 90 M90 0 C91.06 32.4, 90.78 64.61, 90 90 M90 90 C64.01 90.65, 35.37 89.24, 0 90 M90 90 C54.74 89.79, 19.05 89.34, 0 90 M0 90 C-2.64 60.28, -2.33 27.48, 0 0 M0 90 C-0.11 65.05, 0.2 39.99, 0 0" stroke="#1e1e1e" stroke-width="1" fill="none"></path></g><g stroke-linecap="round" transform="translate(389.556328235959 496.3920605553907) rotate(0 45 45)"><path d="M0 0 C33.42 0.2, 68.65 -0.42, 90 0 M0 0 C21.01 0.44, 40.22 -0.05, 90 0 M90 0 C89.86 28.31, 90.77 55.98, 90 90 M90 0 C90.06 20.53, 90.1 38.94, 90 90 M90 90 C53.04 88.35, 21.58 89.55, 0 90 M90 90 C71.86 90.84, 54.23 91.38, 0 90 M0 90 C-0.76 58.92, 0.38 30.1, 0 0 M0 90 C0.38 67.83, -0.75 47.33, 0 0" stroke="#1e1e1e" stroke-width="1" fill="none"></path></g><g stroke-linecap="round" transform="translate(506.64055077276043 510.3920605553907) rotate(0 45 45)"><path d="M0 0 C17.61 -0.97, 35.83 0.39, 90 0 M0 0 C30.09 -0.41, 61.49 -1.09, 90 0 M90 0 C91.19 29.68, 88.49 55.81, 90 90 M90 0 C89.84 30.27, 90.82 62.2, 90 90 M90 90 C65.62 88.92, 35.5 89.7, 0 90 M90 90 C57.38 90.98, 24.27 89.24, 0 90 M0 90 C0.24 58.39, -0.43 24.7, 0 0 M0 90 C-1.04 65.21, -0.56 38.12, 0 0" stroke="#1e1e1e" stroke-width="1" fill="none"></path></g><g stroke-linecap="round" transform="translate(626.6405507727604 525.3920605553907) rotate(0 45 45)"><path d="M0 0 C22.69 0.67, 49.14 1.71, 90 0 M0 0 C34.3 -0.66, 68.68 -0.2, 90 0 M90 0 C88.9 33.2, 91.38 65.48, 90 90 M90 0 C90.85 33.5, 89.86 65.68, 90 90 M90 90 C68.13 90.24, 51.56 89.78, 0 90 M90 90 C61.33 89.73, 32.52 89.88, 0 90 M0 90 C-0.95 65.59, -0.09 40.53, 0 0 M0 90 C0.46 66.2, 0.27 43, 0 0" stroke="#1e1e1e" stroke-width="1" fill="none"></path></g><g stroke-linecap="round" transform="translate(744.1420525972171 349.45885481613334) rotate(0 45 45)"><path d="M0 0 C22.16 1.1, 44.28 -1.36, 90 0 M0 0 C29.98 0.42, 60.45 0.88, 90 0 M90 0 C90.17 35.57, 90.68 71.42, 90 90 M90 0 C90.73 19.59, 90.03 41.94, 90 90 M90 90 C66.03 90.13, 39.82 91.1, 0 90 M90 90 C56.72 88.31, 21.89 88.88, 0 90 M0 90 C0.21 57.36, -0.34 20.55, 0 0 M0 90 C-0.16 54.96, 0.03 22.38, 0 0" stroke="#1e1e1e" stroke-width="1" fill="none"></path></g><g stroke-linecap="round" transform="translate(745.5563747420529 466.29018021483114) rotate(0 45 45)"><path d="M0 0 C29.1 -1.83, 55.61 -0.51, 90 0 M0 0 C24.36 0.47, 48.4 -0.88, 90 0 M90 0 C91.8 28.5, 88.95 59.07, 90 90 M90 0 C89.14 29.83, 89.74 56.79, 90 90 M90 90 C61.61 90.89, 33.84 90.82, 0 90 M90 90 C71.6 89.02, 54.34 88.68, 0 90 M0 90 C-0.72 56.87, 1.76 25.04, 0 0 M0 90 C0.2 70.06, 0.79 48.07, 0 0" stroke="#1e1e1e" stroke-width="1" fill="none"></path></g><g stroke-linecap="round" transform="translate(449.64055077276043 643.7565407670121) rotate(0 45 45)"><path d="M0 0 C32.8 0.6, 63.58 0.75, 90 0 M0 0 C28.82 -1.29, 55.88 -0.05, 90 0 M90 0 C89.18 27.92, 91.05 52.04, 90 90 M90 0 C89.1 17.86, 89.5 38.37, 90 90 M90 90 C64.8 91.25, 34.55 91.81, 0 90 M90 90 C71.19 89.19, 51.34 89.62, 0 90 M0 90 C2 55, -0.98 19.02, 0 0 M0 90 C0.62 69.69, -0.73 49.99, 0 0" stroke="#1e1e1e" stroke-width="1" fill="none"></path></g><g stroke-linecap="round" transform="translate(578.3256921402099 657.3456337778651) rotate(12.057008612698532 45 45)"><path d="M0 0 C20.34 0.16, 42.34 1.3, 90 0 M0 0 C32.14 1.16, 63.81 1.42, 90 0 M90 0 C89.77 26.24, 87.54 51.24, 90 90 M90 0 C90.04 36.14, 89.8 71.16, 90 90 M90 90 C56.94 91.78, 26.14 90.09, 0 90 M90 90 C65.85 89.32, 41.38 89.04, 0 90 M0 90 C-2.09 64.81, -2.26 39.77, 0 0 M0 90 C-1.26 54.96, -1.59 19.75, 0 0" stroke="#1e1e1e" stroke-width="1" fill="none"></path></g><g stroke-linecap="round" transform="translate(713.809817211888 669.406571184477) rotate(24.08453251719919 45 45)"><path d="M0 0 C27.2 1.23, 55.13 1.88, 90 0 M0 0 C19.73 0.3, 39.6 -1.12, 90 0 M90 0 C88.38 33.57, 92.07 69.93, 90 90 M90 0 C90.16 18.35, 90.64 37.01, 90 90 M90 90 C57.58 90.34, 27.93 92.31, 0 90 M90 90 C69.22 89.43, 46.35 90.67, 0 90 M0 90 C-0.92 60.88, 2.44 32.35, 0 0 M0 90 C-0.38 65.12, 1.21 39.37, 0 0" stroke="#1e1e1e" stroke-width="1" fill="none"></path></g><g stroke-linecap="round"><g transform="translate(10 279.68027233557643) rotate(0 0.6483588815631265 188.1300921186267)"><path d="M0 0 C1.28 117.09, 0.05 232.04, 1.3 376.26 M0 0 C0.18 129.13, 1.22 259.27, 1.3 376.26" stroke="#1e1e1e" stroke-width="4" fill="none"></path></g></g><mask></mask><g stroke-linecap="round"><g transform="translate(10.797474648675234 655.8576673084539) rotate(0 179.26866490064822 0.15730605034877954)"><path d="M0 0 C129.82 -1.88, 262.23 -2.12, 358.54 0.31 M0 0 C133.21 1.9, 265.22 1.3, 358.54 0.31" stroke="#1e1e1e" stroke-width="4" fill="none"></path></g></g><mask></mask><g stroke-linecap="round"><g transform="translate(369.2898958160831 655.1073393842947) rotate(0 29.56001232018707 52.00473317239266)"><path d="M0 0 C23.56 41.04, 47.57 82.45, 59.12 104.01 M0 0 C14.33 22.66, 27.08 48.19, 59.12 104.01" stroke="#1e1e1e" stroke-width="4" fill="none"></path></g></g><mask></mask><g stroke-linecap="round"><g transform="translate(430.77509807558454 761.0006093828005) rotate(0 116.16900914904045 11.874680468580323)"><path d="M0 0 C75.17 7.64, 146.68 16.83, 232.34 23.75 M0 0 C73.89 10.19, 148.97 16.19, 232.34 23.75" stroke="#1e1e1e" stroke-width="4" fill="none"></path></g></g><mask></mask><g stroke-linecap="round"><g transform="translate(664.6238991604769 785.2273528520494) rotate(0 58.86681217106616 25.90255049662619)"><path d="M0 0 C33.07 16.91, 69.08 29.97, 117.73 51.81 M0 0 C24.06 8.75, 49.1 21.26, 117.73 51.81" stroke="#1e1e1e" stroke-width="4" fill="none"></path></g></g><mask></mask><g stroke-linecap="round"><g transform="translate(782.8076839249952 835.9618503284768) rotate(0 39.256664772964996 -88.28653377735566)"><path d="M0 0 C24.73 -52.68, 45.54 -105.91, 78.51 -176.57 M0 0 C31.47 -68.12, 62.17 -138.14, 78.51 -176.57" stroke="#1e1e1e" stroke-width="4" fill="none"></path></g></g><mask></mask><g stroke-linecap="round"><g transform="translate(859.7534833160189 276.8277049813556) rotate(0 0.605314659139367 190.14592231668183)"><path d="M0 0 C-0.14 147.58, 2.55 296.83, 1.21 380.29 M0 0 C0.7 76.68, 1.23 153.55, 1.21 380.29" stroke="#1e1e1e" stroke-width="4" fill="none"></path></g></g><mask></mask><g stroke-linecap="round"><g transform="translate(10.438192896589499 279.6572207267069) rotate(0 117.17853198012926 -0.4056591603595052)"><path d="M0 0 C69.98 1.01, 135.11 1.43, 234.36 -0.81 M0 0 C86.51 -0.1, 172.6 -1.87, 234.36 -0.81" stroke="#1e1e1e" stroke-width="4" fill="none"></path></g></g><mask></mask><g stroke-linecap="round"><g transform="translate(247.56542641868327 279.9187498150319) rotate(0 -0.08795215796499178 -15.285065198365999)"><path d="M0 0 C-1.17 -6.55, 0.45 -13.54, -0.18 -30.57 M0 0 C0.08 -10.37, 0.17 -20.17, -0.18 -30.57" stroke="#1e1e1e" stroke-width="2" fill="none"></path></g></g><mask></mask><g stroke-linecap="round"><g transform="translate(246.59830002750732 249.8429966906145) rotate(0 58.63832713993361 -0.47611149426074917)"><path d="M0 0 C34.35 -0.56, 66.46 0.14, 117.28 -0.95 M0 0 C44.98 -0.04, 88.41 0.18, 117.28 -0.95" stroke="#1e1e1e" stroke-width="4" fill="none"></path></g></g><mask></mask><g stroke-linecap="round"><g transform="translate(364.4031187839937 248.44723431393786) rotate(0 -0.012271617433270876 -6.65268865083803)"><path d="M0 0 C0.1 -3.96, 0.46 -8.25, -0.02 -13.31 M0 0 C-0.1 -2.78, 0.22 -5.59, -0.02 -13.31" stroke="#1e1e1e" stroke-width="2" fill="none"></path></g></g><mask></mask><g stroke-linecap="round"><g transform="translate(365.341034070987 234.1547324253671) rotate(0 70.21699131751302 -0.4272796766303486)"><path d="M0 0 C43.3 -0.05, 81.55 0.25, 140.43 -0.85 M0 0 C31.5 -0.43, 61.96 -0.18, 140.43 -0.85" stroke="#1e1e1e" stroke-width="4" fill="none"></path></g></g><mask></mask><g stroke-linecap="round"><g transform="translate(506.3777606491458 249.75666962694126) rotate(0 -0.17493199488762912 -8.433071238555613)"><path d="M0 0 C-1.01 -5.24, -1 -11.78, -0.35 -16.87 M0 0 C0.1 -4.71, 0.14 -9.47, -0.35 -16.87" stroke="#1e1e1e" stroke-width="2" fill="none"></path></g></g><mask></mask><g stroke-linecap="round"><g transform="translate(506.94019126175954 249.98060385817766) rotate(0 57.796492199507156 0.4594796860780548)"><path d="M0 0 C37.9 -0.78, 78.59 1.5, 115.59 0.92 M0 0 C28.88 -0.03, 55.67 1.43, 115.59 0.92" stroke="#1e1e1e" stroke-width="4" fill="none"></path></g></g><mask></mask><g stroke-linecap="round"><g transform="translate(623.6710859683426 264.7833241733589) rotate(0 0.017731944662045862 -7.174175994983784)"><path d="M0 0 C-0.1 -4.71, -0.33 -10.15, 0.04 -14.35 M0 0 C-0.12 -3.79, 0.06 -8.41, 0.04 -14.35" stroke="#1e1e1e" stroke-width="2" fill="none"></path></g></g><mask></mask><g stroke-linecap="round"><g transform="translate(624.3181348579665 264.97891025643173) rotate(0 58.335260257450045 0.20241523923107252)"><path d="M0 0 C32.14 0.42, 66.3 1.16, 116.67 0.4 M0 0 C30.27 -1.52, 60.05 -1.5, 116.67 0.4" stroke="#1e1e1e" stroke-width="4" fill="none"></path></g></g><mask></mask><g stroke-linecap="round"><g transform="translate(741.3143829264573 277.14638095567386) rotate(0 -0.008613249559402902 -5.920209270839393)"><path d="M0 0 C-0.06 -3.98, -0.23 -9.19, -0.02 -11.84 M0 0 C0.01 -4.74, 0.06 -8.75, -0.02 -11.84" stroke="#1e1e1e" stroke-width="2" fill="none"></path></g></g><mask></mask><g stroke-linecap="round"><g transform="translate(742.4208408673294 277.08214091338743) rotate(0 58.116136087145605 -0.2880947219057646)"><path d="M0 0 C41.47 -1.67, 86.29 -0.93, 116.23 -0.58 M0 0 C27.24 1.67, 54.76 0.41, 116.23 -0.58" stroke="#1e1e1e" stroke-width="4" fill="none"></path></g></g><mask></mask><g stroke-linecap="round" transform="translate(2003.878130910496 305.3920605553907) rotate(0 45 45)"><path d="M0 0 C37.22 0.76, 69.84 0.38, 90 0 M0 0 C20.99 -1.04, 39.75 -0.63, 90 0 M90 0 C89.31 21.55, 90.88 39.88, 90 90 M90 0 C88.46 35.04, 89.28 71.3, 90 90 M90 90 C62.47 88.29, 38.35 89.68, 0 90 M90 90 C71.34 90.13, 53.08 89.78, 0 90 M0 90 C-1.93 57.69, -0.05 25.98, 0 0 M0 90 C-1.12 67.94, -1.27 45.28, 0 0" stroke="#1e1e1e" stroke-width="1" fill="none"></path></g><g stroke-linecap="round" transform="translate(1884.7762505699357 304.3920605553907) rotate(0 45 45)"><path d="M0 0 C24.05 -0.05, 49.3 0.33, 90 0 M0 0 C34.78 0.38, 69.68 0.41, 90 0 M90 0 C90.29 34.24, 91.59 66.6, 90 90 M90 0 C89.46 17.96, 89.26 37.13, 90 90 M90 90 C67.16 89.42, 41.09 89.72, 0 90 M90 90 C57.88 89.07, 27.86 90.39, 0 90 M0 90 C1.15 58.72, -0.4 28.08, 0 0 M0 90 C-0.22 54.5, 0.32 17.77, 0 0" stroke="#1e1e1e" stroke-width="1" fill="none"></path></g><g stroke-linecap="round" transform="translate(1766.7762505699366 274.3920605553907) rotate(0 45 45)"><path d="M0 0 C28.18 0.5, 61.26 1.68, 90 0 M0 0 C24.31 0.04, 50.99 -0.62, 90 0 M90 0 C92.3 32.48, 88.44 67.19, 90 90 M90 0 C90 18.63, 89.7 36.68, 90 90 M90 90 C67.12 90.35, 49.17 88.85, 0 90 M90 90 C66.28 90.07, 41.93 88.74, 0 90 M0 90 C-1.24 64.94, 1.71 36.51, 0 0 M0 90 C0.46 58.31, 0.1 27.71, 0 0" stroke="#1e1e1e" stroke-width="1" fill="none"></path></g><g stroke-linecap="round" transform="translate(1648.7762505699366 258.20051547173773) rotate(0 45 45)"><path d="M0 0 C29.84 1.51, 55.59 -1.18, 90 0 M0 0 C29.52 -0.64, 58.26 0.15, 90 0 M90 0 C89.03 25.68, 89.05 54.42, 90 90 M90 0 C89.52 20.61, 89.24 42.92, 90 90 M90 90 C63.82 88.98, 35.1 88.62, 0 90 M90 90 C69.44 89.93, 47.78 90.87, 0 90 M0 90 C2.4 60.83, 1.35 32.66, 0 0 M0 90 C-0.39 60.14, 0.15 29.62, 0 0" stroke="#1e1e1e" stroke-width="1" fill="none"></path></g><g stroke-linecap="round" transform="translate(1529.7762505699366 273.3920605553907) rotate(0 45 45)"><path d="M0 0 C29.27 -1.71, 59.77 -2.37, 90 0 M0 0 C29.77 0.74, 57.92 1.4, 90 0 M90 0 C87.31 18.96, 87.89 37.33, 90 90 M90 0 C88.97 26.77, 89.66 51.94, 90 90 M90 90 C60.9 87.95, 31.68 90.61, 0 90 M90 90 C56.93 89.68, 24.15 88.9, 0 90 M0 90 C0.02 56.75, -0.28 26.2, 0 0 M0 90 C0.47 67.65, 0.74 47.51, 0 0" stroke="#1e1e1e" stroke-width="1" fill="none"></path></g><g stroke-linecap="round" transform="translate(1412.109258872595 289.9971884456123) rotate(0 45 45)"><path d="M0 0 C35.39 -1.16, 70.45 2.01, 90 0 M0 0 C23.02 0.69, 45.1 -1.24, 90 0 M90 0 C87.9 20.38, 89.05 40.35, 90 90 M90 0 C89.41 19.74, 89.56 41.94, 90 90 M90 90 C66.93 90.45, 47.82 90.31, 0 90 M90 90 C69.08 89.75, 48.49 91.22, 0 90 M0 90 C0.2 68.36, -1.65 46.55, 0 0 M0 90 C0.26 64.66, 0.79 39.53, 0 0" stroke="#1e1e1e" stroke-width="1" fill="none"></path></g><g stroke-linecap="round" transform="translate(2002.7762505699357 423.3920605553907) rotate(0 45 45)"><path d="M0 0 C23.33 2.31, 44.9 2.33, 90 0 M0 0 C29.17 -1.83, 59.45 -1.82, 90 0 M90 0 C89.31 27.13, 88.04 54.47, 90 90 M90 0 C90.18 30.27, 89.43 59.27, 90 90 M90 90 C71.21 91.51, 48.44 90.31, 0 90 M90 90 C61.05 90.53, 30.41 90, 0 90 M0 90 C-1.52 69.04, -0.57 50.42, 0 0 M0 90 C0.55 72.4, -0.77 53.61, 0 0" stroke="#1e1e1e" stroke-width="1" fill="none"></path></g><g stroke-linecap="round" transform="translate(1884.7762505699357 422.3920605553907) rotate(0 45 45)"><path d="M0 0 C19.04 0.9, 40.54 -0.7, 90 0 M0 0 C35.25 -0.08, 72.03 0.21, 90 0 M90 0 C88.55 24.78, 90.57 52.3, 90 90 M90 0 C89.57 17.78, 89.38 35.5, 90 90 M90 90 C56.56 90.25, 26.33 90.64, 0 90 M90 90 C66.83 91.33, 44.17 91.18, 0 90 M0 90 C0.26 65.27, -1.35 41.27, 0 0 M0 90 C-1.25 60.7, -0.51 30.14, 0 0" stroke="#1e1e1e" stroke-width="1" fill="none"></path></g><g stroke-linecap="round" transform="translate(1766.7762505699366 392.3920605553907) rotate(0 45 45)"><path d="M0 0 C34.9 -0.71, 70.43 -2.56, 90 0 M0 0 C18.7 0.2, 37.1 0.77, 90 0 M90 0 C89.99 23.5, 87.39 47.26, 90 90 M90 0 C88.71 30.69, 90.04 63.37, 90 90 M90 90 C59.07 90.1, 26.05 90.94, 0 90 M90 90 C53.39 90.71, 18.12 89.78, 0 90 M0 90 C-1.77 69.04, 0.74 48.81, 0 0 M0 90 C0.67 55.35, 1.03 21.61, 0 0" stroke="#1e1e1e" stroke-width="1" fill="none"></path></g><g stroke-linecap="round" transform="translate(1648.7762505699366 379.2005154717375) rotate(0 45 45)"><path d="M0 0 C36.3 -1.84, 66.76 -1.44, 90 0 M0 0 C18.59 0.51, 36.98 -0.13, 90 0 M90 0 C88.3 21.23, 91.25 40.64, 90 90 M90 0 C89.88 24.95, 89.81 47.9, 90 90 M90 90 C62.91 91.11, 39.77 88.77, 0 90 M90 90 C58.66 89.65, 27.23 90.12, 0 90 M0 90 C1.46 65.28, 2.46 36.54, 0 0 M0 90 C0.37 59.25, 0.23 29.26, 0 0" stroke="#1e1e1e" stroke-width="1" fill="none"></path></g><g stroke-linecap="round" transform="translate(1529.7762505699366 392.3920605553907) rotate(0 45 45)"><path d="M0 0 C25.24 -0.61, 52.37 1.03, 90 0 M0 0 C20.91 -0.64, 41.93 0.36, 90 0 M90 0 C90.08 25.98, 88.5 52.77, 90 90 M90 0 C91.01 20.39, 90.41 42.39, 90 90 M90 90 C64.1 89.15, 35.19 88.84, 0 90 M90 90 C59.65 89.29, 30.48 88.48, 0 90 M0 90 C1.33 60.25, 0.57 33.21, 0 0 M0 90 C-0.09 67.7, -0.85 42.78, 0 0" stroke="#1e1e1e" stroke-width="1" fill="none"></path></g><g stroke-linecap="round" transform="translate(1410.8781871668953 407.3920605553907) rotate(0 45 45)"><path d="M0 0 C16.91 0.85, 36.25 0.45, 90 0 M0 0 C25.79 0.94, 52.95 -0.36, 90 0 M90 0 C89.83 26.97, 89.12 58.13, 90 90 M90 0 C90.35 33.25, 90.54 65.44, 90 90 M90 90 C59.28 87.78, 27.35 88.86, 0 90 M90 90 C68.51 88.91, 47.38 90.17, 0 90 M0 90 C0.12 56.95, -1.58 24.36, 0 0 M0 90 C-0.73 61.67, 0.39 34.89, 0 0" stroke="#1e1e1e" stroke-width="1" fill="none"></path></g><g stroke-linecap="round" transform="translate(2003.7762505699357 541.3920605553907) rotate(0 45 45)"><path d="M0 0 C19.3 -0.28, 41.02 -0.88, 90 0 M0 0 C20.74 -1.27, 41.62 0.2, 90 0 M90 0 C88.41 22.89, 91.06 44.5, 90 90 M90 0 C90 20.51, 90.42 43, 90 90 M90 90 C69.51 88.72, 46.58 88, 0 90 M90 90 C64.53 89.44, 39.42 89.94, 0 90 M0 90 C-1.23 69.5, -0.29 47.77, 0 0 M0 90 C1.08 55, 0.87 21.08, 0 0" stroke="#1e1e1e" stroke-width="1" fill="none"></path></g><g stroke-linecap="round" transform="translate(1884.7762505699357 540.4906780247451) rotate(0 45 45)"><path d="M0 0 C27.79 -0.7, 54.43 -1.27, 90 0 M0 0 C29.95 1.38, 58.99 0.59, 90 0 M90 0 C90.73 21.11, 88.08 40.03, 90 90 M90 0 C90.6 30.44, 89.43 59.38, 90 90 M90 90 C69.06 88.49, 50.32 89.56, 0 90 M90 90 C72.29 91.07, 52.57 90.69, 0 90 M0 90 C0.48 62.59, 2.1 32.99, 0 0 M0 90 C-0.13 71.71, 0.09 52.18, 0 0" stroke="#1e1e1e" stroke-width="1" fill="none"></path></g><g stroke-linecap="round" transform="translate(1766.7762505699366 510.3920605553907) rotate(0 45 45)"><path d="M0 0 C24.74 -1, 52.89 0.39, 90 0 M0 0 C17.5 -0.74, 35.39 -1.1, 90 0 M90 0 C89.27 31.91, 91.15 64.41, 90 90 M90 0 C89.81 22.96, 89.65 45.32, 90 90 M90 90 C65.16 89.23, 39.02 89.77, 0 90 M90 90 C59.67 91.14, 30.68 90.3, 0 90 M0 90 C1.68 57.88, -1.85 28.84, 0 0 M0 90 C0.27 65.18, -0.74 40.11, 0 0" stroke="#1e1e1e" stroke-width="1" fill="none"></path></g><g stroke-linecap="round" transform="translate(1648.860473106738 496.3920605553907) rotate(0 45 45)"><path d="M0 0 C24.08 0.64, 44.94 0.94, 90 0 M0 0 C30.59 -0.39, 63.27 0.93, 90 0 M90 0 C89.95 31.67, 88.4 63.98, 90 90 M90 0 C88.6 36.1, 89.14 70.98, 90 90 M90 90 C66.79 90.25, 48.01 91.31, 0 90 M90 90 C55.9 89.95, 22.03 90.43, 0 90 M0 90 C-2.58 61.36, -1.29 30.92, 0 0 M0 90 C-0.94 57.48, -1.57 26.46, 0 0" stroke="#1e1e1e" stroke-width="1" fill="none"></path></g><g stroke-linecap="round" transform="translate(1531.7762505699366 510.3920605553907) rotate(0 45 45)"><path d="M0 0 C18.92 0.32, 42.77 -1.18, 90 0 M0 0 C24.85 1.26, 49.07 -0.07, 90 0 M90 0 C89.25 27.12, 92.2 50.87, 90 90 M90 0 C89 30.45, 88.64 61.99, 90 90 M90 90 C64.49 91.55, 39.37 88.92, 0 90 M90 90 C59.68 89.66, 28.74 90.48, 0 90 M0 90 C0.3 67.8, 1.93 45.06, 0 0 M0 90 C-0.66 64.55, -0.38 38.18, 0 0" stroke="#1e1e1e" stroke-width="1" fill="none"></path></g><g stroke-linecap="round" transform="translate(1411.7762505699357 525.3920605553907) rotate(0 45 45)"><path d="M0 0 C28.12 -1.32, 53.69 -1.68, 90 0 M0 0 C21.56 -1.26, 42.02 -0.32, 90 0 M90 0 C91.51 26.55, 90.46 54.09, 90 90 M90 0 C89.12 29.56, 89.66 58.47, 90 90 M90 90 C63.09 89.4, 33.82 90.87, 0 90 M90 90 C67.18 90.9, 43.26 89.14, 0 90 M0 90 C1.35 58.16, 0 22.89, 0 0 M0 90 C0.19 67.49, 1.48 44.23, 0 0" stroke="#1e1e1e" stroke-width="1" fill="none"></path></g><g stroke-linecap="round" transform="translate(1294.274748745479 349.45885481613334) rotate(0 45 45)"><path d="M0 0 C27.9 -1.01, 55.68 1.66, 90 0 M0 0 C32.87 0.87, 66.04 0.1, 90 0 M90 0 C91.78 30, 91.48 62.71, 90 90 M90 0 C89.33 20.44, 89.6 43.09, 90 90 M90 90 C57.55 89.69, 22.56 90.39, 0 90 M90 90 C62.15 89.87, 35.84 90.52, 0 90 M0 90 C-0.73 57.97, -1.48 25.28, 0 0 M0 90 C1.23 57.79, 0.85 27.24, 0 0" stroke="#1e1e1e" stroke-width="1" fill="none"></path></g><g stroke-linecap="round" transform="translate(1292.8604266006432 466.29018021483114) rotate(0 45 45)"><path d="M0 0 C20.43 1.82, 44.83 1.68, 90 0 M0 0 C21.11 -0.75, 42.54 0.73, 90 0 M90 0 C91.01 20.54, 89.16 40.91, 90 90 M90 0 C90.08 25.94, 90.61 52.08, 90 90 M90 90 C67.69 91.06, 47.19 90.78, 0 90 M90 90 C55.95 88.93, 21.01 89.74, 0 90 M0 90 C-0.87 54.74, 1.14 21.9, 0 0 M0 90 C-0.31 62.6, -1.12 34.16, 0 0" stroke="#1e1e1e" stroke-width="1" fill="none"></path></g><g stroke-linecap="round" transform="translate(1588.7762505699366 643.7565407670121) rotate(0 45 45)"><path d="M0 0 C21.44 0.48, 38.9 -0.71, 90 0 M0 0 C29.98 1.43, 58.28 0.9, 90 0 M90 0 C89.03 18.42, 89.97 39.18, 90 90 M90 0 C90.85 19.21, 89.53 37.24, 90 90 M90 90 C62.01 91.1, 35.56 89.58, 0 90 M90 90 C71.64 90.33, 53.01 89.65, 0 90 M0 90 C1.48 64.39, 0.65 42.64, 0 0 M0 90 C-0.79 67.96, 0.7 45.93, 0 0" stroke="#1e1e1e" stroke-width="1" fill="none"></path></g><g stroke-linecap="round" transform="translate(1460.0911092024871 657.3456337778651) rotate(347.9429913873015 45 45)"><path d="M0 0 C30.78 -0.65, 64.76 -0.26, 90 0 M0 0 C21.85 -0.43, 44.21 -0.58, 90 0 M90 0 C89.14 24.34, 87.53 49.41, 90 90 M90 0 C90.01 30.14, 90.75 59.01, 90 90 M90 90 C60.45 89.46, 25.64 91.69, 0 90 M90 90 C66.01 90.39, 40.3 90.02, 0 90 M0 90 C-0.25 72.61, -1.55 53.19, 0 0 M0 90 C1.44 58.06, 0.2 26.1, 0 0" stroke="#1e1e1e" stroke-width="1" fill="none"></path></g><g stroke-linecap="round" transform="translate(1324.606984130808 669.406571184477) rotate(335.9154674828008 45 45)"><path d="M0 0 C32.02 0.28, 61.95 1.12, 90 0 M0 0 C34.99 -0.11, 71.33 -1.03, 90 0 M90 0 C87.95 21.63, 90.47 43.99, 90 90 M90 0 C89.57 33.79, 89.92 68.49, 90 90 M90 90 C58.15 91.01, 29.42 90.6, 0 90 M90 90 C57.67 89.41, 25.02 90.42, 0 90 M0 90 C-1.18 69.34, 1.05 46.5, 0 0 M0 90 C-1.14 62.48, -0.31 34.55, 0 0" stroke="#1e1e1e" stroke-width="1" fill="none"></path></g><g stroke-linecap="round"><g transform="translate(2118.416801342695 279.6802723355762) rotate(0 -0.6483588815631265 188.1300921186267)"><path d="M0 0 C-0.36 109.7, 1.06 217.36, -1.3 376.26 M0 0 C-2.47 129.51, -3.13 259.68, -1.3 376.26" stroke="#1e1e1e" stroke-width="4" fill="none"></path></g></g><mask></mask><g stroke-linecap="round"><g transform="translate(2117.619326694021 655.8576673084539) rotate(0 -179.26866490064822 0.15730605034877954)"><path d="M0 0 C-109.74 0.43, -221.39 0.33, -358.54 0.31 M0 0 C-118.77 -1.41, -236.8 -1.82, -358.54 0.31" stroke="#1e1e1e" stroke-width="4" fill="none"></path></g></g><mask></mask><g stroke-linecap="round"><g transform="translate(1759.1269055266139 655.1073393842947) rotate(0 -29.56001232018707 52.00473317239266)"><path d="M0 0 C-18.85 34.54, -39.93 72.17, -59.12 104.01 M0 0 C-14.81 23.68, -28.6 49.66, -59.12 104.01" stroke="#1e1e1e" stroke-width="4" fill="none"></path></g></g><mask></mask><g stroke-linecap="round"><g transform="translate(1697.6417032671116 761.0006093828005) rotate(0 -116.16900914904045 11.874680468580323)"><path d="M0 0 C-53.84 3.51, -109.84 8.47, -232.34 23.75 M0 0 C-66.06 5.15, -131.8 12.34, -232.34 23.75" stroke="#1e1e1e" stroke-width="4" fill="none"></path></g></g><mask></mask><g stroke-linecap="round"><g transform="translate(1463.7929021822192 785.2273528520494) rotate(0 -58.86681217106616 25.90255049662619)"><path d="M0 0 C-26.85 9.74, -51.66 22.15, -117.73 51.81 M0 0 C-23.29 11.75, -48.69 21.97, -117.73 51.81" stroke="#1e1e1e" stroke-width="4" fill="none"></path></g></g><mask></mask><g stroke-linecap="round"><g transform="translate(1345.6091174177009 835.961850328477) rotate(0 -39.256664772964996 -88.28653377735566)"><path d="M0 0 C-20.61 -48.83, -43.62 -96.43, -78.51 -176.57 M0 0 C-27.78 -57.25, -52.96 -116.41, -78.51 -176.57" stroke="#1e1e1e" stroke-width="4" fill="none"></path></g></g><mask></mask><g stroke-linecap="round"><g transform="translate(1268.6633180266772 276.92846700925986) rotate(0 -0.605314659139367 190.14592231668183)"><path d="M0 0 C-1.78 90.19, -0.56 180.81, -1.21 380.29 M0 0 C-1.79 144.35, -2.04 289.23, -1.21 380.29" stroke="#1e1e1e" stroke-width="4" fill="none"></path></g></g><mask></mask><g stroke-linecap="round"><g transform="translate(2117.9786084461066 279.6572207267069) rotate(0 -117.17853198012926 -0.4056591603595052)"><path d="M0 0 C-67.49 1.28, -134.65 -1.18, -234.36 -0.81 M0 0 C-79.8 -1.08, -160.11 -0.67, -234.36 -0.81" stroke="#1e1e1e" stroke-width="4" fill="none"></path></g></g><mask></mask><g stroke-linecap="round"><g transform="translate(1880.8513749240137 279.9187498150319) rotate(0 0.08795215796499178 -15.285065198365999)"><path d="M0 0 C0.81 -10.3, 0.49 -19.25, 0.18 -30.57 M0 0 C0.14 -7.44, -0.19 -16.18, 0.18 -30.57" stroke="#1e1e1e" stroke-width="2" fill="none"></path></g></g><mask></mask><g stroke-linecap="round"><g transform="translate(1881.8185013151888 249.8429966906145) rotate(0 -58.63832713993361 -0.47611149426074917)"><path d="M0 0 C-42.55 -0.83, -87.63 -0.48, -117.28 -0.95 M0 0 C-36.16 -0.19, -70.78 0.17, -117.28 -0.95" stroke="#1e1e1e" stroke-width="4" fill="none"></path></g></g><mask></mask><g stroke-linecap="round"><g transform="translate(1764.0136825587024 248.44723431393786) rotate(0 0.012271617433270876 -6.65268865083803)"><path d="M0 0 C-0.31 -2.86, 0.02 -6.12, 0.02 -13.31 M0 0 C0.27 -5.22, 0.21 -10.09, 0.02 -13.31" stroke="#1e1e1e" stroke-width="2" fill="none"></path></g></g><mask></mask><g stroke-linecap="round"><g transform="translate(1763.075767271709 234.1547324253671) rotate(0 -70.21699131751348 -0.4272796766303486)"><path d="M0 0 C-43.72 1.07, -85.91 -0.71, -140.43 -0.85 M0 0 C-28.93 0.02, -58.12 -0.83, -140.43 -0.85" stroke="#1e1e1e" stroke-width="4" fill="none"></path></g></g><mask></mask><g stroke-linecap="round"><g transform="translate(1622.0390406935503 249.75666962694126) rotate(0 0.17493199488808386 -8.433071238555613)"><path d="M0 0 C0.84 -6.22, -0.52 -11.14, 0.35 -16.87 M0 0 C0.35 -4.68, 0.03 -9.46, 0.35 -16.87" stroke="#1e1e1e" stroke-width="2" fill="none"></path></g></g><mask></mask><g stroke-linecap="round"><g transform="translate(1621.4766100809375 249.98060385817766) rotate(0 -57.796492199507156 0.4594796860780548)"><path d="M0 0 C-40.38 1.21, -77.65 1.11, -115.59 0.92 M0 0 C-41.43 -0.29, -83.19 1.04, -115.59 0.92" stroke="#1e1e1e" stroke-width="4" fill="none"></path></g></g><mask></mask><g stroke-linecap="round"><g transform="translate(1504.7457153743535 264.7833241733589) rotate(0 -0.017731944662045862 -7.174175994983784)"><path d="M0 0 C-0.13 -3.34, 0.45 -6.88, -0.04 -14.35 M0 0 C-0.32 -3.95, -0.23 -8.24, -0.04 -14.35" stroke="#1e1e1e" stroke-width="2" fill="none"></path></g></g><mask></mask><g stroke-linecap="round"><g transform="translate(1504.0986664847296 264.97891025643173) rotate(0 -58.335260257450045 0.20241523923107252)"><path d="M0 0 C-42 2.15, -86.46 0.28, -116.67 0.4 M0 0 C-29.96 0.81, -57.99 0.27, -116.67 0.4" stroke="#1e1e1e" stroke-width="4" fill="none"></path></g></g><mask></mask><g stroke-linecap="round"><g transform="translate(1387.1024184162388 277.14638095567386) rotate(0 0.008613249559402902 -5.920209270839393)"><path d="M0 0 C-0.1 -4.31, -0.31 -8.82, 0.02 -11.84 M0 0 C0.24 -4.33, 0.13 -8.16, 0.02 -11.84" stroke="#1e1e1e" stroke-width="2" fill="none"></path></g></g><mask></mask><g stroke-linecap="round"><g transform="translate(1385.9959604753667 277.08214091338743) rotate(0 -58.11613608714515 -0.2880947219057646)"><path d="M0 0 C-44.12 -2.41, -85.25 -2.06, -116.23 -0.58 M0 0 C-35.85 -0.23, -72.8 -0.88, -116.23 -0.58" stroke="#1e1e1e" stroke-width="4" fill="none"></path></g></g><mask></mask><g stroke-linecap="round" transform="translate(937.1935285600566 144.86622846711848) rotate(0 27.492209632616778 21.3049244220756)"><path d="M10.65 0 C23.57 0, 36.49 0, 44.33 0 C51.43 0, 54.98 3.55, 54.98 10.65 C54.98 17.32, 54.98 24, 54.98 31.96 C54.98 39.06, 51.43 42.61, 44.33 42.61 C31.49 42.61, 18.65 42.61, 10.65 42.61 C3.55 42.61, 0 39.06, 0 31.96 C0 25.83, 0 19.69, 0 10.65 C0 3.55, 3.55 0, 10.65 0" stroke="none" stroke-width="0" fill="#ffffff"></path><path d="M10.65 0 C19.76 0, 28.86 0, 44.33 0 M10.65 0 C18.94 0, 27.23 0, 44.33 0 M44.33 0 C51.43 0, 54.98 3.55, 54.98 10.65 M44.33 0 C51.43 0, 54.98 3.55, 54.98 10.65 M54.98 10.65 C54.98 17.54, 54.98 24.42, 54.98 31.96 M54.98 10.65 C54.98 17.99, 54.98 25.34, 54.98 31.96 M54.98 31.96 C54.98 39.06, 51.43 42.61, 44.33 42.61 M54.98 31.96 C54.98 39.06, 51.43 42.61, 44.33 42.61 M44.33 42.61 C32.28 42.61, 20.22 42.61, 10.65 42.61 M44.33 42.61 C37.53 42.61, 30.72 42.61, 10.65 42.61 M10.65 42.61 C3.55 42.61, 0 39.06, 0 31.96 M10.65 42.61 C3.55 42.61, 0 39.06, 0 31.96 M0 31.96 C0 25.05, 0 18.14, 0 10.65 M0 31.96 C0 25.03, 0 18.1, 0 10.65 M0 10.65 C0 3.55, 3.55 0, 10.65 0 M0 10.65 C0 3.55, 3.55 0, 10.65 0" stroke="#ffffff" stroke-width="0.5" fill="none"></path></g><g stroke-linecap="round"><g transform="translate(942.8989402446714 616.9103477501977) rotate(0 123.45937028890239 -190.97974736953358)"><path d="M-1.8 0.3 C7.32 -9.47, 47.28 -32.43, 52.13 -57.18 C56.99 -81.92, 37.92 -119.64, 27.32 -148.17 C16.72 -176.7, -9.27 -195.82, -11.45 -228.36 C-13.63 -260.9, -5.49 -317.22, 14.25 -343.4 C33.99 -369.59, 66.3 -385.5, 106.99 -385.47 C147.68 -385.45, 234.11 -375.27, 258.39 -343.27 C282.67 -311.27, 258.65 -227.82, 252.67 -193.45 C246.68 -159.08, 235.24 -162.19, 222.49 -137.06 C209.75 -111.93, 172.38 -66.51, 176.22 -42.67 C180.07 -18.84, 233.9 -2.29, 245.56 5.97 M2.42 -2 C11.56 -11.56, 46.96 -29.23, 50.88 -54.37 C54.8 -79.5, 36.36 -124.29, 25.93 -152.83 C15.5 -181.37, -9.41 -194.04, -11.69 -225.6 C-13.98 -257.15, -8.04 -315.21, 12.22 -342.15 C32.48 -369.1, 68.46 -386.68, 109.88 -387.29 C151.3 -387.9, 237.15 -377.97, 260.74 -345.81 C284.34 -313.64, 257.06 -229.92, 251.44 -194.32 C245.83 -158.72, 239.23 -157.52, 227.05 -132.21 C214.88 -106.9, 175.04 -65.98, 178.39 -42.45 C181.73 -18.92, 236.2 0.73, 247.13 8.99" stroke="#343a40" stroke-width="4" fill="none"></path></g></g><mask></mask><g stroke-linecap="round"><g transform="translate(946.8067029525473 619.9626702905874) rotate(0 123.45937028890239 -190.97974736953358)"><path d="M1.81 -1.51 C10.63 -10.57, 47.22 -29.4, 51.09 -54.06 C54.96 -78.72, 34.76 -120.48, 25.03 -149.48 C15.31 -178.48, -4.89 -195.82, -7.27 -228.05 C-9.64 -260.27, -8.65 -316.59, 10.78 -342.83 C30.21 -369.07, 67.96 -385.18, 109.33 -385.47 C150.71 -385.76, 235.57 -376.42, 259.05 -344.56 C282.53 -312.7, 256.15 -229.45, 250.21 -194.31 C244.27 -159.17, 235.58 -158.8, 223.39 -133.71 C211.21 -108.62, 173.29 -67.22, 177.09 -43.78 C180.89 -20.34, 235.2 -1.36, 246.18 6.92 M-0.65 3.84 C8.02 -6.06, 45.43 -33.19, 49.27 -58.2 C53.11 -83.21, 32.92 -118.4, 22.4 -146.21 C11.87 -174.03, -12.73 -192.61, -13.88 -225.11 C-15.03 -257.62, -4.28 -314.24, 15.51 -341.27 C35.3 -368.3, 65.26 -386.19, 104.86 -387.28 C144.47 -388.37, 229.33 -379.74, 253.13 -347.8 C276.92 -315.86, 253.21 -230.99, 247.65 -195.64 C242.1 -160.28, 231.12 -160.93, 219.8 -135.68 C208.48 -110.44, 175 -67.07, 179.72 -44.15 C184.44 -21.23, 236.77 -6.48, 248.1 1.82" stroke="#343a40" stroke-width="4" fill="none"></path></g></g><mask></mask><g stroke-linecap="round" transform="translate(791.6521292975895 256.34026926006857) rotate(270.8407926271697 5.327293043409554 11.259158931788733)"><path d="M0.41 -0.53 L9.7 -0.22 L10.9 22.5 L0.39 23.45" stroke="none" stroke-width="0" fill="#b9b6b6"></path><path d="M0 0 C4.19 -0.3, 7.83 0.49, 10.65 0 M0 0 C3.57 0.09, 7.06 -0.03, 10.65 0 M10.65 0 C11.47 7.09, 11.07 13.87, 10.65 22.52 M10.65 0 C10.25 8.59, 10.11 16.76, 10.65 22.52 M10.65 22.52 C7.56 22.89, 4.99 22.24, 0 22.52 M10.65 22.52 C6.64 22.66, 2.57 22.69, 0 22.52 M0 22.52 C-1.02 15.79, -0.15 7.91, 0 0 M0 22.52 C-0.35 14.15, -0.06 5.58, 0 0" stroke="#afafaf" stroke-width="0.5" fill="none"></path></g><g stroke-linecap="round" transform="translate(780.2093678395922 200.811970572293) rotate(0 16.77005450140723 32.992662615407966)"><path d="M8.39 0 C14.16 0, 19.93 0, 25.16 0 C30.75 0, 33.54 2.8, 33.54 8.39 C33.54 26.88, 33.54 45.37, 33.54 57.6 C33.54 63.19, 30.75 65.99, 25.16 65.99 C18.59 65.99, 12.03 65.99, 8.39 65.99 C2.8 65.99, 0 63.19, 0 57.6 C0 42.1, 0 26.6, 0 8.39 C0 2.8, 2.8 0, 8.39 0" stroke="none" stroke-width="0" fill="#1e1e1e"></path><path d="M8.39 0 C13.88 0, 19.37 0, 25.16 0 M8.39 0 C14.12 0, 19.86 0, 25.16 0 M25.16 0 C30.75 0, 33.54 2.8, 33.54 8.39 M25.16 0 C30.75 0, 33.54 2.8, 33.54 8.39 M33.54 8.39 C33.54 19.59, 33.54 30.79, 33.54 57.6 M33.54 8.39 C33.54 22.47, 33.54 36.55, 33.54 57.6 M33.54 57.6 C33.54 63.19, 30.75 65.99, 25.16 65.99 M33.54 57.6 C33.54 63.19, 30.75 65.99, 25.16 65.99 M25.16 65.99 C19.54 65.99, 13.92 65.99, 8.39 65.99 M25.16 65.99 C20.35 65.99, 15.55 65.99, 8.39 65.99 M8.39 65.99 C2.8 65.99, 0 63.19, 0 57.6 M8.39 65.99 C2.8 65.99, 0 63.19, 0 57.6 M0 57.6 C0 44.12, 0 30.64, 0 8.39 M0 57.6 C0 44.39, 0 31.18, 0 8.39 M0 8.39 C0 2.8, 2.8 0, 8.39 0 M0 8.39 C0 2.8, 2.8 0, 8.39 0" stroke="#afafaf" stroke-width="0.5" fill="none"></path></g><g stroke-linecap="round" transform="translate(787.786205434325 194.00908100785486) rotate(0 9.193216906674024 7.234416744635908)"><path d="M3.62 0 C8 0, 12.38 0, 14.77 0 C17.18 0, 18.39 1.21, 18.39 3.62 C18.39 5.21, 18.39 6.8, 18.39 10.85 C18.39 13.26, 17.18 14.47, 14.77 14.47 C12.07 14.47, 9.38 14.47, 3.62 14.47 C1.21 14.47, 0 13.26, 0 10.85 C0 8.4, 0 5.95, 0 3.62 C0 1.21, 1.21 0, 3.62 0" stroke="none" stroke-width="0" fill="#1e1e1e"></path><path d="M3.62 0 C6.36 0, 9.1 0, 14.77 0 M3.62 0 C7.43 0, 11.25 0, 14.77 0 M14.77 0 C17.18 0, 18.39 1.21, 18.39 3.62 M14.77 0 C17.18 0, 18.39 1.21, 18.39 3.62 M18.39 3.62 C18.39 5.07, 18.39 6.52, 18.39 10.85 M18.39 3.62 C18.39 6.29, 18.39 8.97, 18.39 10.85 M18.39 10.85 C18.39 13.26, 17.18 14.47, 14.77 14.47 M18.39 10.85 C18.39 13.26, 17.18 14.47, 14.77 14.47 M14.77 14.47 C11.93 14.47, 9.1 14.47, 3.62 14.47 M14.77 14.47 C12.19 14.47, 9.61 14.47, 3.62 14.47 M3.62 14.47 C1.21 14.47, 0 13.26, 0 10.85 M3.62 14.47 C1.21 14.47, 0 13.26, 0 10.85 M0 10.85 C0 8.91, 0 6.97, 0 3.62 M0 10.85 C0 8.59, 0 6.32, 0 3.62 M0 3.62 C0 1.21, 1.21 0, 3.62 0 M0 3.62 C0 1.21, 1.21 0, 3.62 0" stroke="#1e1e1e" stroke-width="0.5" fill="none"></path></g><g stroke-linecap="round" transform="translate(863.4305912486243 607.013621985548) rotate(360.65412477845075 5.327293043409554 11.259158931788761)"><path d="M0.39 0.94 L11.08 0.47 L10.18 22.77 L-0.26 22.1" stroke="none" stroke-width="0" fill="#b9b6b6"></path><path d="M0 0 C4.43 0.31, 8.64 0.43, 10.65 0 M0 0 C3.22 0.24, 6.45 0.14, 10.65 0 M10.65 0 C11.19 7.75, 10.83 15.95, 10.65 22.52 M10.65 0 C10.74 5.16, 10.97 10.81, 10.65 22.52 M10.65 22.52 C8.31 22.78, 5.66 23, 0 22.52 M10.65 22.52 C7.09 22.28, 3.2 22.51, 0 22.52 M0 22.52 C0.05 16.12, -0.21 10.98, 0 0 M0 22.52 C-0.53 17.2, 0.07 12.1, 0 0" stroke="#afafaf" stroke-width="0.5" fill="none"></path></g><g stroke-linecap="round" transform="translate(885.7824454398942 585.1700161168272) rotate(89.81333215128103 16.77005450140723 32.992662615407994)"><path d="M8.39 0 C14.31 0, 20.23 0, 25.16 0 C30.75 0, 33.54 2.8, 33.54 8.39 C33.54 21.66, 33.54 34.93, 33.54 57.6 C33.54 63.19, 30.75 65.99, 25.16 65.99 C19.36 65.99, 13.56 65.99, 8.39 65.99 C2.8 65.99, 0 63.19, 0 57.6 C0 47.18, 0 36.75, 0 8.39 C0 2.8, 2.8 0, 8.39 0" stroke="none" stroke-width="0" fill="#1e1e1e"></path><path d="M8.39 0 C12.93 0, 17.48 0, 25.16 0 M8.39 0 C12.84 0, 17.29 0, 25.16 0 M25.16 0 C30.75 0, 33.54 2.8, 33.54 8.39 M25.16 0 C30.75 0, 33.54 2.8, 33.54 8.39 M33.54 8.39 C33.54 24.21, 33.54 40.03, 33.54 57.6 M33.54 8.39 C33.54 25.57, 33.54 42.76, 33.54 57.6 M33.54 57.6 C33.54 63.19, 30.75 65.99, 25.16 65.99 M33.54 57.6 C33.54 63.19, 30.75 65.99, 25.16 65.99 M25.16 65.99 C21.25 65.99, 17.35 65.99, 8.39 65.99 M25.16 65.99 C20.49 65.99, 15.83 65.99, 8.39 65.99 M8.39 65.99 C2.8 65.99, 0 63.19, 0 57.6 M8.39 65.99 C2.8 65.99, 0 63.19, 0 57.6 M0 57.6 C0 38.99, 0 20.37, 0 8.39 M0 57.6 C0 44.11, 0 30.63, 0 8.39 M0 8.39 C0 2.8, 2.8 0, 8.39 0 M0 8.39 C0 2.8, 2.8 0, 8.39 0" stroke="#afafaf" stroke-width="0.5" fill="none"></path></g><g stroke-linecap="round" transform="translate(925.920245662197 610.8221790194863) rotate(89.81333215128103 9.193216906674024 7.234416744635894)"><path d="M3.62 0 C5.97 0, 8.32 0, 14.77 0 C17.18 0, 18.39 1.21, 18.39 3.62 C18.39 6.27, 18.39 8.91, 18.39 10.85 C18.39 13.26, 17.18 14.47, 14.77 14.47 C10.41 14.47, 6.05 14.47, 3.62 14.47 C1.21 14.47, 0 13.26, 0 10.85 C0 9.11, 0 7.37, 0 3.62 C0 1.21, 1.21 0, 3.62 0" stroke="none" stroke-width="0" fill="#1e1e1e"></path><path d="M3.62 0 C7.58 0, 11.54 0, 14.77 0 M3.62 0 C7.91 0, 12.2 0, 14.77 0 M14.77 0 C17.18 0, 18.39 1.21, 18.39 3.62 M14.77 0 C17.18 0, 18.39 1.21, 18.39 3.62 M18.39 3.62 C18.39 6.27, 18.39 8.93, 18.39 10.85 M18.39 3.62 C18.39 6.09, 18.39 8.57, 18.39 10.85 M18.39 10.85 C18.39 13.26, 17.18 14.47, 14.77 14.47 M18.39 10.85 C18.39 13.26, 17.18 14.47, 14.77 14.47 M14.77 14.47 C11.53 14.47, 8.29 14.47, 3.62 14.47 M14.77 14.47 C11.44 14.47, 8.12 14.47, 3.62 14.47 M3.62 14.47 C1.21 14.47, 0 13.26, 0 10.85 M3.62 14.47 C1.21 14.47, 0 13.26, 0 10.85 M0 10.85 C0 8.13, 0 5.41, 0 3.62 M0 10.85 C0 9.06, 0 7.27, 0 3.62 M0 3.62 C0 1.21, 1.21 0, 3.62 0 M0 3.62 C0 1.21, 1.21 0, 3.62 0" stroke="#1e1e1e" stroke-width="0.5" fill="none"></path></g><g stroke-linecap="round" transform="translate(1255.0623131335124 607.0136219855477) rotate(-0.6541247784507139 5.327293043409554 11.259158931788761)"><path d="M-0.26 -0.41 L10.33 0.29 L9.8 23.06 L0.78 22.2" stroke="none" stroke-width="0" fill="#b9b6b6"></path><path d="M0 0 C3.85 0.13, 8.52 0.29, 10.65 0 M0 0 C3.58 0.08, 7.17 -0.02, 10.65 0 M10.65 0 C11.15 4.73, 10.44 9.69, 10.65 22.52 M10.65 0 C10.19 8.58, 10.88 16.88, 10.65 22.52 M10.65 22.52 C6.61 22.95, 1.64 22.71, 0 22.52 M10.65 22.52 C7.59 22.59, 4.3 22.52, 0 22.52 M0 22.52 C-0.45 15.01, -0.14 9.67, 0 0 M0 22.52 C0.17 16.04, -0.28 9.21, 0 0" stroke="#afafaf" stroke-width="0.5" fill="none"></path></g><g stroke-linecap="round" transform="translate(1209.824936026247 585.170016116827) rotate(270.18666784871897 16.77005450140723 32.992662615407994)"><path d="M8.39 0 C14.89 0, 21.39 0, 25.16 0 C30.75 0, 33.54 2.8, 33.54 8.39 C33.54 20.15, 33.54 31.91, 33.54 57.6 C33.54 63.19, 30.75 65.99, 25.16 65.99 C19.26 65.99, 13.36 65.99, 8.39 65.99 C2.8 65.99, 0 63.19, 0 57.6 C0 40.25, 0 22.89, 0 8.39 C0 2.8, 2.8 0, 8.39 0" stroke="none" stroke-width="0" fill="#1e1e1e"></path><path d="M8.39 0 C13.27 0, 18.15 0, 25.16 0 M8.39 0 C14.75 0, 21.12 0, 25.16 0 M25.16 0 C30.75 0, 33.54 2.8, 33.54 8.39 M25.16 0 C30.75 0, 33.54 2.8, 33.54 8.39 M33.54 8.39 C33.54 19.18, 33.54 29.98, 33.54 57.6 M33.54 8.39 C33.54 25.04, 33.54 41.7, 33.54 57.6 M33.54 57.6 C33.54 63.19, 30.75 65.99, 25.16 65.99 M33.54 57.6 C33.54 63.19, 30.75 65.99, 25.16 65.99 M25.16 65.99 C21.73 65.99, 18.31 65.99, 8.39 65.99 M25.16 65.99 C19.33 65.99, 13.5 65.99, 8.39 65.99 M8.39 65.99 C2.8 65.99, 0 63.19, 0 57.6 M8.39 65.99 C2.8 65.99, 0 63.19, 0 57.6 M0 57.6 C0 38.43, 0 19.27, 0 8.39 M0 57.6 C0 40.23, 0 22.86, 0 8.39 M0 8.39 C0 2.8, 2.8 0, 8.39 0 M0 8.39 C0 2.8, 2.8 0, 8.39 0" stroke="#afafaf" stroke-width="0.5" fill="none"></path></g><g stroke-linecap="round" transform="translate(1184.8408109934098 610.822179019486) rotate(270.18666784871897 9.193216906674024 7.234416744635894)"><path d="M3.62 0 C7.87 0, 12.12 0, 14.77 0 C17.18 0, 18.39 1.21, 18.39 3.62 C18.39 5.7, 18.39 7.78, 18.39 10.85 C18.39 13.26, 17.18 14.47, 14.77 14.47 C12.34 14.47, 9.9 14.47, 3.62 14.47 C1.21 14.47, 0 13.26, 0 10.85 C0 8.93, 0 7.01, 0 3.62 C0 1.21, 1.21 0, 3.62 0" stroke="none" stroke-width="0" fill="#1e1e1e"></path><path d="M3.62 0 C7.22 0, 10.82 0, 14.77 0 M3.62 0 C7.46 0, 11.3 0, 14.77 0 M14.77 0 C17.18 0, 18.39 1.21, 18.39 3.62 M14.77 0 C17.18 0, 18.39 1.21, 18.39 3.62 M18.39 3.62 C18.39 6.21, 18.39 8.8, 18.39 10.85 M18.39 3.62 C18.39 5.08, 18.39 6.54, 18.39 10.85 M18.39 10.85 C18.39 13.26, 17.18 14.47, 14.77 14.47 M18.39 10.85 C18.39 13.26, 17.18 14.47, 14.77 14.47 M14.77 14.47 C11.15 14.47, 7.54 14.47, 3.62 14.47 M14.77 14.47 C11.14 14.47, 7.51 14.47, 3.62 14.47 M3.62 14.47 C1.21 14.47, 0 13.26, 0 10.85 M3.62 14.47 C1.21 14.47, 0 13.26, 0 10.85 M0 10.85 C0 8.08, 0 5.3, 0 3.62 M0 10.85 C0 9.1, 0 7.35, 0 3.62 M0 3.62 C0 1.21, 1.21 0, 3.62 0 M0 3.62 C0 1.21, 1.21 0, 3.62 0" stroke="#1e1e1e" stroke-width="0.5" fill="none"></path></g><g stroke-linecap="round"><g transform="translate(798.6830603664703 194.85406634689068) rotate(0 -158.68516994881202 -92.02207560535865)"><path d="M0.06 -2.2 C-4.83 -13.45, 17.69 -54.13, -29.84 -65.17 C-77.36 -76.2, -236.89 -48.43, -285.09 -68.38 C-333.29 -88.33, -313.34 -165.23, -319.02 -184.85 M-3.35 2.77 C-8.59 -8.04, 14.95 -56.61, -32.2 -69.21 C-79.35 -81.8, -238.4 -53.89, -286.26 -72.81 C-334.11 -91.72, -314.54 -163.76, -319.34 -182.69" stroke="#343a40" stroke-width="4" fill="none"></path></g></g><mask></mask></svg>