<svg width="320" height="55" viewBox="0 0 320 55" fill="none" xmlns="http://www.w3.org/2000/svg">
  <!-- Icon - positioned on left, orange -->
  <path d="M0 29.2632L17.4379 38.5019C18.7615 43.9679 24.2446 54.9 24.2446 54.9C24.2446 54.9 29.7278 43.9679 31.0514 38.5019L48.4893 29.2632L30.7357 0L24.2446 8.47572L30.7357 21.895L39.9839 22.869L28.0797 25.3581L24.2446 34.7732L20.4096 25.3581L8.5054 22.869L17.7536 21.895L24.2446 8.47572L17.7536 0L0 29.2632Z" fill="#FE6702"/>
  
  <!-- Text - ONSPRY -->
  <path d="M93.2161 11.2715C99.0611 11.2715 110.298 12.5855 110.298 27.4471C110.298 42.354 99.0611 43.6227 93.2161 43.6227H86.1931C80.3481 43.6227 69.1113 42.354 69.1113 27.4471C69.1113 12.5855 80.3481 11.2715 86.1931 11.2715H93.2161ZM93.8504 37.3246C101.508 37.3246 103.094 32.839 103.094 27.4471C103.094 22.0552 101.508 17.6149 93.8504 17.6149H85.5135C77.9014 17.6149 76.3156 22.0552 76.3156 27.4471C76.3156 32.839 77.9014 37.3246 85.5135 37.3246H93.8504Z" fill="black"/>
  <path d="M148.812 36.1466V11.2715H155.563V43.6227H145.595L121.128 18.7476V43.6227H114.377V11.2715H124.3L148.812 36.1466Z" fill="black"/>
  <path d="M166.439 20.3335C166.439 27.4471 196.071 20.2428 196.071 34.153C196.071 37.8231 194.667 43.6227 180.802 43.6227H175.002C161.138 43.6227 159.733 36.0107 159.733 32.3406H166.484C166.484 33.2921 167.118 37.3246 173.235 37.3246H184.699C188.187 37.3246 189.32 36.1466 189.32 34.6061C189.32 27.3565 159.642 34.3795 159.642 20.7866C159.642 17.0711 161.047 11.2715 174.957 11.2715H180.711C194.621 11.2715 196.026 18.8835 196.026 22.5989H189.23C189.23 21.6021 188.641 17.6149 182.524 17.6149H171.015C167.526 17.6149 166.439 18.7476 166.439 20.3335Z" fill="black"/>
  <path d="M223.327 11.2715C229.126 11.2715 238.777 12.1777 238.777 23.3692C238.777 34.5607 229.126 35.4669 223.327 35.4669H206.924V43.6227H200.173V11.2715H223.327ZM225.864 29.1689C230.44 29.1689 231.573 25.9066 231.573 23.3692C231.573 20.8319 230.44 17.6149 225.864 17.6149H206.924V29.1689H225.864Z" fill="black"/>
  <path d="M281.476 23.3692C281.476 30.4829 277.58 33.428 273.23 34.6514L283.107 43.6227H273.185L264.666 35.4669H249.624V43.6227H242.872V11.2715H266.026C271.825 11.2715 281.476 12.1777 281.476 23.3692ZM249.624 17.6149V29.1689H268.563C273.139 29.1689 274.272 25.9066 274.272 23.3692C274.272 20.8319 273.139 17.6149 268.563 17.6149H249.624Z" fill="black"/>
  <path d="M301.544 26.9487L313.097 11.2715H322.295L304.987 32.9296H304.942V43.6227H298.191V32.9296H298.145L280.837 11.2715H289.99L301.544 26.9487Z" fill="black"/>
</svg>
